HIERARCHY
ROOT Root
{
	OFFSET 0.000000 0.000000 0.000000
	CHANNELS 6 Xposition Yposition Zposition Xrotation Yrotation Zrotation
	JOINT Pelvis_R
	{
		OFFSET 0.000000 0.000000 10.000000
		CHANNELS 3 Xrotation Yrotation Zrotation
		JOINT Thigh_R
		{
			OFFSET 0.000000 -0.000000 9.000000
			CHANNELS 3 Xrotation Yrotation Zrotation
			JOINT Shin_R
			{
				OFFSET 0.000000 -0.000002 50.000000
				CHANNELS 3 Xrotation Yrotation Zrotation
				JOINT Foot_R
				{
					OFFSET 0.000000 -0.000002 41.500004
					CHANNELS 3 Xrotation Yrotation Zrotation
					End Site
					{
						OFFSET 0.000000 -0.000001 18.499994
					}
				}
			}
		}
	}
	JOINT Pelvis_L
	{
		OFFSET 0.000000 0.000000 10.000000
		CHANNELS 3 Xrotation Yrotation Zrotation
		JOINT Thigh_L
		{
			OFFSET 0.000000 -0.000000 9.000000
			CHANNELS 3 Xrotation Yrotation Zrotation
			JOINT Shin_L
			{
				OFFSET 0.000000 -0.000002 50.000000
				CHANNELS 3 Xrotation Yrotation Zrotation
				JOINT Foot_L
				{
					OFFSET 0.000000 -0.000002 41.500004
					CHANNELS 3 Xrotation Yrotation Zrotation
					End Site
					{
						OFFSET 0.000000 -0.000001 18.499994
					}
				}
			}
		}
	}
	JOINT Spine
	{
		OFFSET 0.000000 0.000000 10.000000
		CHANNELS 3 Xrotation Yrotation Zrotation
		JOINT Neck
		{
			OFFSET 0.000000 -0.000002 52.499996
			CHANNELS 3 Xrotation Yrotation Zrotation
			JOINT Head
			{
				OFFSET 0.000000 -0.000001 16.500002
				CHANNELS 3 Xrotation Yrotation Zrotation
				End Site
				{
					OFFSET 0.000000 -0.000000 9.499997
				}
			}
		}
		JOINT Shoulder_R
		{
			OFFSET 0.000000 -0.000002 52.499996
			CHANNELS 3 Xrotation Yrotation Zrotation
			JOINT Upperarm_R
			{
				OFFSET 0.000000 -0.000001 16.500002
				CHANNELS 3 Xrotation Yrotation Zrotation
				JOINT Forearm_R
				{
					OFFSET 0.000000 -0.000001 25.999992
					CHANNELS 3 Xrotation Yrotation Zrotation
					JOINT Hand_R
					{
						OFFSET 0.000000 -0.000001 24.000000
						CHANNELS 3 Xrotation Yrotation Zrotation
						End Site
						{
							OFFSET 0.000000 -0.000000 7.500005
						}
					}
				}
			}
		}
		JOINT Shoulder_L
		{
			OFFSET 0.000000 -0.000002 52.499996
			CHANNELS 3 Xrotation Yrotation Zrotation
			JOINT Upperarm_L
			{
				OFFSET 0.000000 -0.000001 16.500002
				CHANNELS 3 Xrotation Yrotation Zrotation
				JOINT Forearm_L
				{
					OFFSET 0.000000 -0.000001 25.999992
					CHANNELS 3 Xrotation Yrotation Zrotation
					JOINT Hand_L
					{
						OFFSET 0.000000 -0.000001 24.000000
						CHANNELS 3 Xrotation Yrotation Zrotation
						End Site
						{
							OFFSET 0.000000 -0.000000 7.500005
						}
					}
				}
			}
		}
	}
}
MOTION
Frames: 17
Frame Time: 0.041667
11.739910 137.073303 -0.008843 -0.000000 0.000000 -0.000000 28.114479 -77.066083 22.554246 -93.025059 1.231266 76.502251 7.194618 1.456718 0.957973 -39.991867 13.248977 21.421657 28.114471 102.933929 -34.907359 -85.622404 -4.693196 -103.077581 12.171047 3.533049 2.530027 -37.631105 -14.680156 -24.687639 98.190431 0.639827 -0.738510 25.254273 1.128721 -1.647418 -1.576669 4.241413 -7.718773 -48.163861 -79.947993 42.064516 -89.184580 -3.501534 74.341179 -14.723625 7.789386 11.297092 -11.035749 2.646014 3.396138 -48.163806 100.052019 -59.033817 -62.997253 -1.261354 -74.699238 -9.572832 -2.994445 -7.727656 -9.374189 -0.696273 -4.038955 
11.775962 138.474701 -0.011535 -0.000000 0.000000 -0.000000 23.471870 -80.025816 19.785528 -90.179876 -1.943181 77.339120 6.871324 3.558360 2.652264 -39.456196 12.245186 21.474811 23.471889 99.974189 -27.799123 -88.903573 -4.078040 -101.978788 10.278383 3.387828 2.345611 -34.472538 -16.200015 -24.789852 97.000270 0.472153 -0.533673 23.271640 1.181328 -1.768832 -0.588368 4.805783 -8.304417 -52.101608 -81.568954 38.747673 -87.193765 -3.464399 74.925700 -13.706107 10.769199 14.761859 -2.694345 4.414928 5.141177 -52.101506 98.431079 -51.771246 -64.308697 0.516891 -74.465967 -9.474631 -5.206497 -10.543812 -7.424856 -1.084288 -3.559947 
12.080219 137.380905 -0.011189 -0.000000 0.000000 -0.000000 20.529918 -80.087615 17.307585 -90.350378 0.388759 78.149645 7.119131 3.083188 2.262711 -43.126252 14.524271 25.702869 20.529913 99.912403 -24.321493 -88.474500 -3.717686 -101.150901 11.021210 3.304558 2.374528 -36.487793 -13.308322 -21.591355 98.776174 0.176738 -0.206117 22.632952 2.250501 -3.901553 -0.982128 4.655743 -8.222131 -51.685718 -81.835877 41.193622 -87.457287 -2.547081 76.169177 -12.433138 9.582755 12.710657 -4.800280 0.886580 0.791169 -51.685752 98.164148 -53.606255 -64.578749 -0.667890 -73.782046 -8.828829 -4.052804 -8.500374 -8.396232 0.482803 -1.747910 
13.880968 136.101471 -0.010759 -0.000000 0.000000 -0.000000 14.864870 -81.223114 12.764847 -88.905799 0.419071 78.598525 9.065202 3.019611 2.030295 -40.736471 11.410168 19.424097 14.864882 98.776898 -17.301299 -89.029228 -3.297652 -99.599949 12.131928 1.880465 1.275638 -35.331035 -12.132482 -18.331394 98.791153 -0.767814 0.895679 21.753092 1.133747 -2.433274 -0.469176 5.964698 -10.347791 -50.693329 -80.625472 42.286541 -87.587245 -4.837506 76.402571 -12.147554 11.098961 14.894730 -12.593224 6.616321 8.365749 -50.693319 99.374533 -54.486222 -66.329702 0.401073 -75.525978 -7.788449 1.252035 -1.278415 -8.854796 2.966763 0.873748 
13.117867 138.319580 -0.010673 -0.000000 0.000000 -0.000000 2.693902 -81.509148 2.321695 -86.834558 2.125532 78.381147 8.261904 3.812187 2.715570 -42.367445 10.961041 19.011355 2.693937 98.490843 -3.125758 -90.887401 0.770919 -99.940776 12.524505 0.920227 0.459623 -37.857044 -14.787867 -23.038973 96.824837 -0.594539 0.669936 22.418183 1.901770 -3.586564 1.431205 4.077706 -7.077926 -62.058778 -83.073241 31.632734 -85.074343 -2.586286 77.077906 -11.243361 11.907285 15.510823 -13.669397 8.829555 11.350486 -62.058826 96.926750 -38.210523 -67.803022 4.726899 -75.205082 -9.267681 -1.513259 -5.778240 -8.169371 1.835115 -0.104077 
12.776574 143.683670 -0.011247 -0.000000 0.000000 -0.000000 8.574978 -78.327469 6.988931 -87.377244 0.146461 74.588787 7.701255 4.090120 2.933003 -45.111825 8.036895 15.647726 8.574993 101.672543 -10.517635 -90.647675 -2.108103 -103.889554 11.126716 1.754844 1.019267 -38.576611 -18.014585 -28.298483 98.442144 -0.505086 0.585582 22.356573 0.914824 -1.913403 0.787214 5.322167 -9.493023 -74.460974 -80.652779 20.995920 -85.155083 -2.327758 74.362817 -14.048546 8.550822 12.518913 -2.205942 4.667211 5.768108 -74.460878 99.347232 -27.469820 -68.250740 2.885697 -78.697132 -7.360340 0.434713 -2.259380 -8.263891 0.230209 -2.943192 
12.313414 143.692902 -0.011894 -0.000000 0.000000 -0.000000 10.188726 -78.041284 8.264213 -87.616021 -0.274445 74.222819 6.641600 4.354322 3.272403 -42.231582 8.295570 15.383690 10.188744 101.958728 -12.555534 -89.620579 -1.103282 -103.741947 12.667735 1.792251 1.057331 -35.931914 -18.675580 -28.224196 97.978237 -0.440495 0.506536 19.918030 1.223475 -2.256536 3.537954 4.397301 -7.719062 -74.688023 -81.265072 20.540814 -85.265363 -0.268600 75.368836 -10.953123 9.610985 12.194935 -15.186326 3.438234 3.759331 -74.688146 98.734927 -26.473091 -68.991905 1.503785 -78.658630 -6.805363 -1.429382 -4.174682 -9.398541 1.089818 -1.592243 
13.383561 138.406906 -0.011021 -0.000000 0.000000 -0.000000 8.063523 -81.766428 6.983590 -87.388002 1.514294 78.527655 7.287849 3.497546 2.526244 -44.710852 12.568227 23.750186 8.063554 98.233570 -9.309199 -90.858195 -1.608763 -100.117261 11.599763 2.041978 1.291059 -34.969138 -14.529365 -21.543402 98.947707 -1.350051 1.579219 19.220279 2.677753 -5.137847 0.624935 2.847356 -4.765477 -66.665529 -82.498262 29.975559 -84.477282 -1.329725 77.424197 -11.783880 11.574524 15.187472 -12.626325 6.655474 8.111659 -66.665160 97.501763 -34.844719 -68.729858 0.671580 -75.229684 -8.143020 -4.810581 -8.610155 -10.485672 -0.483053 -3.479030 
12.599018 140.945358 -0.011311 -0.000000 0.000000 -0.000000 9.641895 -78.730293 7.916223 -87.883067 0.731055 75.472620 6.694720 3.471395 2.553412 -47.104427 8.065198 16.591539 9.641911 101.269719 -11.739393 -90.535325 -3.164361 -103.323659 11.049609 2.413090 1.559471 -37.371872 -17.409749 -26.886543 99.494088 -0.985793 1.164332 19.866599 1.836933 -3.659175 0.277184 3.555693 -6.097056 -70.463906 -79.863797 25.546688 -85.303797 -0.730307 74.426222 -12.298644 11.053188 14.293376 -14.948130 4.182781 4.536107 -70.463708 100.136229 -33.109871 -69.520432 -0.324762 -79.944414 -7.312383 -3.873941 -7.033261 -10.390871 0.359954 -2.043189 
13.550141 133.100449 -0.010053 -0.000000 0.000000 -0.000000 -18.623120 -84.295743 -16.882334 -85.846605 1.402678 82.130996 8.951026 3.730170 2.843755 -44.762659 14.197677 26.291456 -18.623003 95.704276 20.536277 -91.845506 4.738555 -95.629868 14.794471 1.371784 1.042161 -33.930027 -13.315776 -20.202692 98.629865 -1.744229 2.028867 18.801658 2.557080 -5.039465 0.722163 3.610214 -5.977767 -79.714311 -84.774081 19.271302 -81.042011 1.709762 78.253252 -15.039530 14.260353 19.747178 -1.256891 1.964312 2.180889 -79.714209 95.225931 -18.602835 -75.027347 2.764706 -78.033497 -10.704424 -6.554526 -11.148218 -9.951861 -2.249552 -4.679483 
12.413788 130.192612 -0.008703 -0.000000 0.000000 -0.000000 11.359703 -84.505792 10.325372 -88.678730 1.415178 82.467731 10.751235 2.553467 1.657994 -44.523903 13.587374 23.784436 11.359720 95.494227 -12.496158 -89.478654 2.879324 -96.327811 17.814272 1.257967 0.715779 -36.614547 -12.233355 -18.358218 100.635031 -1.315044 1.584932 19.509809 2.256032 -4.611604 1.384150 2.540319 -4.455393 -94.242568 -87.244083 7.671013 -80.174803 0.207483 79.807414 -18.177421 16.090064 24.705327 0.912986 0.437422 0.778856 -94.242185 92.755922 -5.114800 -77.019126 4.988567 -77.536253 -15.273259 -13.953921 -22.677027 -7.974542 -6.171420 -8.557589 
12.418231 128.318649 -0.007544 -0.000000 0.000000 -0.000000 -12.987644 -82.165967 -11.334682 -85.715766 3.472652 80.007477 9.295308 3.383978 2.432777 -47.001697 13.680066 25.309693 -12.987599 97.834038 14.876864 -92.743157 5.635565 -99.007116 16.464798 2.258518 1.408055 -36.932448 -14.248094 -22.028028 100.133141 -1.556826 1.859688 19.814071 2.676992 -5.454436 -0.172464 2.135397 -3.684132 -87.336461 -84.760920 13.515491 -80.378172 1.999517 77.557543 -17.786552 15.863866 23.123209 -1.835637 -0.155148 -0.603410 -87.336345 95.239085 -12.118388 -75.945925 5.204156 -79.192000 -20.343363 -14.923735 -28.167234 4.034270 -11.794913 -16.407018 
12.895382 127.831505 -0.005854 -0.000000 0.000000 -0.000000 -18.075508 -79.586013 -15.094429 -85.140726 4.808466 78.614255 11.024012 2.892891 2.073360 -44.051964 12.023109 19.629593 -18.075445 100.414006 21.621707 -92.525076 9.548721 -100.078555 17.621528 2.113473 1.631680 -35.003514 -16.812434 -26.264321 98.947714 -2.010457 2.351680 19.838672 2.926716 -5.977345 0.568561 2.002589 -3.377422 -86.627139 -83.078466 13.229158 -79.672886 1.564350 75.808584 -20.493988 16.939928 26.294312 1.389899 5.596626 7.412153 -86.626975 96.921539 -11.483016 -77.345479 2.955261 -81.527583 -22.679264 -21.641113 -37.291955 3.616064 -4.660594 -7.106672 
12.720090 123.649918 -0.004382 -0.000000 0.000000 -0.000000 -39.879005 -82.256631 -35.154803 -83.485443 6.207201 82.203642 11.168250 3.606570 2.632312 -46.104501 17.198860 29.265489 -39.878937 97.743374 45.120045 -94.133558 12.037110 -95.399083 18.769355 0.582462 0.532597 -35.440301 -13.008392 -20.190748 99.759708 -2.093708 2.484472 21.079031 2.603064 -5.773293 0.029453 2.630450 -4.621246 -83.565835 -86.198961 17.613682 -77.909215 2.573636 77.558246 -26.040830 19.679807 34.014188 -0.360607 6.161237 8.395803 -83.565739 93.801057 -14.764204 -78.294206 4.458632 -78.790767 -40.821657 -26.379575 -63.852331 4.607623 -17.465769 -31.611102 
11.858985 119.861565 -0.004558 -0.000000 0.000000 -0.000000 -73.195271 -71.110985 -55.916792 -70.206510 16.013887 77.987223 11.352325 3.433575 2.621593 -45.084405 15.803335 26.531755 -73.195265 108.889014 92.189263 -107.832602 26.656743 -88.402025 17.694566 -0.772672 -0.267010 -36.131902 -11.877906 -19.573376 99.820011 -1.739114 2.065931 22.179492 2.036350 -4.735906 -0.009022 4.133366 -7.441040 -124.922384 -86.538592 -21.563887 -74.792416 3.797022 76.100137 -27.232422 23.674414 40.955074 -4.377410 7.516648 8.960853 -124.922138 93.461399 28.631847 -78.861938 11.368689 -77.709268 -47.159441 -20.921266 -72.178058 11.604801 -13.127218 -33.110698 
13.154954 119.862541 -0.006282 -0.000000 0.000000 -0.000000 -71.766642 -70.748083 -54.372414 -71.546573 14.044198 78.825847 8.746780 3.289187 2.929280 -41.144295 18.798316 31.695466 -71.766628 109.251922 91.075532 -107.428740 27.249318 -88.469999 16.273233 -1.102033 -0.444966 -32.433929 -11.504864 -18.414233 97.509802 -2.449633 2.793625 22.815987 1.731091 -4.484104 0.835064 4.318288 -7.618247 -110.285931 -84.397041 -8.749758 -73.225440 2.222061 73.153122 -30.536854 26.307841 48.921879 2.815647 20.142277 29.668699 -110.285760 95.602977 16.814643 -78.842035 12.635653 -79.209485 -42.991127 -24.892735 -72.758105 10.520021 -14.221019 -31.609747 
11.911413 109.019600 -0.004304 -0.000000 0.000000 -0.000000 -51.953892 -88.437740 -50.733812 -88.540439 -0.969074 88.738760 14.953144 3.028310 2.354319 -41.492593 19.392025 30.184474 -51.953346 91.562265 53.194101 -89.866199 8.698896 -89.736309 19.894741 -1.051037 -0.432117 -34.397362 -10.198476 -15.429619 99.123742 -2.156400 2.530236 22.284824 2.064856 -4.980795 0.922029 5.587498 -10.083602 -190.351908 -87.917731 -86.535649 -70.795669 -1.264409 76.100711 -41.218890 25.776222 67.447886 8.612376 11.169925 23.379060 -190.352277 92.082247 95.762537 -78.815096 12.802919 -72.785132 -51.443953 -22.692933 -82.922383 14.005731 -14.466112 -37.918181 
